# xmcd CD Database Entry
#
# Track frame offsets:
# 150
# 17042
# 32259
# 53075
# 75366
# 96797
# 114666
# 137157
# 162413
# 182359
# 202705
# 224177
# 243633
# 261393
# 280973
# 302293
# 320374
# 335640
#
# Disc length: 4662 seconds
#
# Revision: 1
# Processed by: cddbd v1.4PL0 Copyright (c) Steve Scherf et al.
# Submitted via: tcd 2.0b
#
DISCID=f7123412
DTITLE=The Tragically Hip - Mix
DYEAR=1900
DGENRE=
TTITLE0=Ahead by a Century
TTITLE1=At the Hundredth Meridian
TTITLE2=Blow at High Dough
TTITLE3=Bobcaygeon
TTITLE4=Thugs
TTITLE5=Fireworks
TTITLE6=Gift Shop
TTITLE7=Grace, Too
TTITLE8=It's a Good Life if You Don't Weaken
TTITLE9=The Dire Wolf
TTITLE10=Little Bones
TTITLE11=New Orleans is Sinking
TTITLE12=Twist My Arm
TTITLE13=Wheat Kings
TTITLE14=Nautical Disaster
TTITLE15=Poets
TTITLE16=Something On
TTITLE17=My Music at Work
EXTD=
EXTT0=
EXTT1=
EXTT2=
EXTT3=
EXTT4=
EXTT5=
EXTT6=
EXTT7=
EXTT8=
EXTT9=
EXTT10=
EXTT11=
EXTT12=
EXTT13=
EXTT14=
EXTT15=
EXTT16=
EXTT17=
PLAYORDER=
